<?xml version="1.0" encoding="utf-8"?>
<!-- Generator: Adobe Illustrator 23.0.3, SVG Export Plug-In . SVG Version: 6.00 Build 0)  -->
<svg version="1.1" id="Layer_1" xmlns="http://www.w3.org/2000/svg" xmlns:xlink="http://www.w3.org/1999/xlink" x="0px" y="0px"
	 viewBox="0 0 58.32 45.11" style="enable-background:new 0 0 58.32 45.11;" xml:space="preserve">
<style type="text/css">
	.st0{fill:#F0F4F6;}
	.st1{fill:#FFFFFF;}
</style>
<g>
	<g>
		<polygon class="st0" points="28.66,29.76 28.66,19.1 26.94,19.1 26.94,17.23 30.88,17.23 30.88,29.76 		"/>
		<path class="st0" d="M28.82,12.83c0.46,0,0.85,0.16,1.17,0.48c0.32,0.32,0.49,0.71,0.49,1.16c0,0.46-0.16,0.85-0.49,1.17
			c-0.32,0.32-0.71,0.48-1.17,0.48c-0.45,0-0.84-0.16-1.16-0.48c-0.32-0.32-0.48-0.71-0.48-1.17c0-0.46,0.16-0.85,0.48-1.17
			C27.97,12.98,28.36,12.83,28.82,12.83z"/>
		<g>
			<path class="st1" d="M40.58,20.42c0-6.37-5.31-11.52-11.73-11.27C23.04,9.38,18.24,14.19,18.03,20
				c-0.19,5.31,3.31,9.85,8.14,11.25v0c0-0.93-0.55-1.74-1.37-2.17c-3.2-1.67-5.37-5.06-5.26-8.93c0.14-5.1,4.38-9.35,9.48-9.49
				c5.52-0.16,10.06,4.28,10.06,9.77c0,3.76-2.14,7.03-5.26,8.66c-0.82,0.43-1.37,1.24-1.37,2.17v0
				C37.14,29.89,40.58,25.56,40.58,20.42z"/>
		</g>
	</g>
</g>
</svg>
