<svg width="150" height="150" viewBox="0 0 150 150" fill="none" xmlns="http://www.w3.org/2000/svg">
<path d="M139.327 55.5976C139.06 55.3304 138.789 55.0696 138.515 54.8118V46.3682C138.515 37.972 131.684 31.1411 123.288 31.1411H96.578V23.4888C96.578 15.319 89.9314 8.67276 81.762 8.67276H56.7533C48.5836 8.67276 41.9373 15.319 41.9373 23.4888V31.1411H15.2271C6.83086 31.1411 0 37.972 0 46.3682V114.147C0 122.543 6.83086 129.374 15.2271 129.374H47.0188C48.2323 129.374 49.2161 128.39 49.2161 127.177C49.2161 125.963 48.2323 124.979 47.0188 124.979H15.2271C9.25371 124.979 4.39424 120.12 4.39424 114.146V69.8203C8.69678 76.2024 15.7743 80.5655 23.8822 81.1664V89.1662C23.8822 93.7351 27.5994 97.4523 32.1683 97.4523C36.7374 97.4523 40.4546 93.7351 40.4546 89.1662V81.2382H77.1721C77.1721 81.2733 77.1709 81.3082 77.1709 81.3434C77.1709 88.8255 79.4147 95.9619 83.5802 101.988L78.9155 106.653C77.2866 106.192 75.4614 106.599 74.182 107.879L56.2644 125.796C52.7177 129.343 52.7177 135.114 56.2644 138.661C59.8192 142.216 65.5734 142.216 69.1286 138.661L87.0463 120.743C88.326 119.463 88.7332 117.638 88.2724 116.009L92.9411 111.341C105.288 119.844 121.746 119.871 134.121 111.41V114.147C134.121 120.12 129.261 124.98 123.288 124.98H88.5817C87.3683 124.98 86.3845 125.963 86.3845 127.177C86.3845 128.39 87.3683 129.374 88.5817 129.374H123.288C131.684 129.374 138.515 122.543 138.515 114.147V107.875C138.788 107.618 139.06 107.358 139.327 107.09C153.557 92.8608 153.558 69.8285 139.327 55.5976V55.5976ZM46.3312 23.4888C46.3312 17.7422 51.0064 13.067 56.753 13.067H81.7617C87.5083 13.067 92.1835 17.7422 92.1835 23.4888V31.1411H87.4963V23.4888C87.4963 20.3268 84.9237 17.7542 81.7617 17.7542H56.753C53.591 17.7542 51.0185 20.3268 51.0185 23.4888V31.1411H46.3312V23.4888ZM55.4127 31.1411V23.4888C55.4127 22.7499 56.0139 22.1487 56.753 22.1487H81.7617C82.5009 22.1487 83.1021 22.7499 83.1021 23.4888V31.1411H55.4127ZM36.0604 82.4127H28.2768V75.0158C28.2768 72.8698 30.0226 71.124 32.1686 71.124C34.3146 71.124 36.0604 72.8698 36.0604 75.0158V82.4127ZM32.1686 93.0583C30.0226 93.0583 28.2768 91.3125 28.2768 89.1665V86.8069H36.0604V89.1665C36.0604 91.3125 34.3146 93.0583 32.1686 93.0583V93.0583ZM40.4546 76.8442V75.0158C40.4546 70.447 36.7374 66.7298 32.1683 66.7298C27.5994 66.7298 23.8822 70.447 23.8822 75.0158V76.7534C12.9741 75.7761 4.39424 66.5886 4.39424 55.4306V46.3682C4.39424 40.3948 9.25371 35.5354 15.2271 35.5354H123.288C129.261 35.5354 134.121 40.3948 134.121 46.3682V51.2698C120.226 41.7375 100.655 42.7773 87.8353 55.5973C82.0301 61.4022 78.4269 68.8222 77.4445 76.844H40.4546V76.8442ZM66.0211 135.554C64.1836 137.391 61.2091 137.392 59.3713 135.554C58.483 134.665 57.994 133.485 57.994 132.229C57.994 130.973 58.483 129.792 59.3713 128.904L71.7841 116.491L78.4339 123.141L66.0211 135.554ZM83.9388 117.636L81.5411 120.034L74.8913 113.384L77.289 110.986C77.3733 110.902 77.4838 110.86 77.5942 110.86C77.7047 110.86 77.8151 110.902 77.8992 110.986C77.8998 110.986 77.9001 110.987 77.9007 110.987L83.9388 117.025C84.1069 117.194 84.1069 117.468 83.9388 117.636V117.636ZM85.5976 112.47L82.4552 109.327L86.3127 105.47C86.8025 106.022 87.3088 106.563 87.8353 107.089C88.3629 107.617 88.9043 108.123 89.4557 108.611L85.5976 112.47ZM90.9425 103.983C84.8953 97.9357 81.5651 89.8954 81.5651 81.3437C81.5651 72.7919 84.8953 64.7517 90.9425 58.7048C103.454 46.193 123.707 46.1912 136.22 58.7048C148.732 71.2163 148.734 91.4692 136.22 103.983C123.708 116.495 103.456 116.496 90.9425 103.983Z" fill="black"/>
<path d="M137.686 84.3607C136.501 84.1028 135.33 84.8546 135.072 86.0408C134.178 90.1524 132.125 93.9065 129.134 96.8968C120.538 105.492 106.625 105.493 98.0282 96.8968C89.4521 88.3207 89.4521 74.3666 98.0282 65.7905C106.624 57.1946 120.538 57.1937 129.134 65.7905C132.122 68.7779 134.174 72.5279 135.07 76.6351C135.328 77.8207 136.499 78.5734 137.685 78.3138C138.87 78.0554 139.622 76.8847 139.363 75.699C138.288 70.7678 135.826 66.2672 132.242 62.6833C121.929 52.3699 105.236 52.3688 94.9213 62.6833C84.6319 72.9727 84.6319 89.7147 94.9213 100.004C105.21 110.293 121.952 110.294 132.242 100.004C135.829 96.4166 138.293 91.911 139.366 86.9745C139.624 85.7889 138.872 84.6188 137.686 84.3607V84.3607Z" fill="black"/>
</svg>
