<?xml version="1.0" encoding="utf-8"?>
<!-- Generator: Adobe Illustrator 23.0.3, SVG Export Plug-In . SVG Version: 6.00 Build 0)  -->
<svg version="1.1" id="Layer_1" xmlns="http://www.w3.org/2000/svg" xmlns:xlink="http://www.w3.org/1999/xlink" x="0px" y="0px"
	 viewBox="0 0 26.36 26.36" style="enable-background:new 0 0 26.36 26.36;" xml:space="preserve">
<style type="text/css">
	.st0{fill:#8A8C8E;}
</style>
<g>
	<path class="st0" d="M23.94,25.98L0.38,2.42c-0.51-0.51-0.51-1.33,0-1.84l0.2-0.2c0.51-0.51,1.33-0.51,1.84,0l23.56,23.56
		c0.51,0.51,0.51,1.33,0,1.84l-0.2,0.2C25.27,26.49,24.45,26.49,23.94,25.98z"/>
	<path class="st0" d="M0.38,23.94L23.94,0.38c0.51-0.51,1.33-0.51,1.84,0l0.2,0.2c0.51,0.51,0.51,1.33,0,1.84L2.42,25.98
		c-0.51,0.51-1.33,0.51-1.84,0l-0.2-0.2C-0.13,25.27-0.13,24.45,0.38,23.94z"/>
</g>
</svg>
