<svg width="150" height="150" viewBox="0 0 150 150" fill="none" xmlns="http://www.w3.org/2000/svg">
<path d="M114.516 76.4813C113.888 76.4813 113.288 76.2281 112.847 75.7594C112.378 75.2625 112.05 74.6063 111.384 73.2938C110.119 70.7719 107.756 66.0844 102.881 59.9063C100.847 57.3281 100.013 56.4281 99.4125 55.8469C98.8781 55.3313 97.425 53.9625 95.3344 52.5094L95.2219 52.425C95.1469 52.3688 95.025 52.2938 94.9031 52.2C93.6 54 92.0344 55.4719 90.2438 56.5875C86.0156 59.2313 81.7219 59.1281 78.2719 59.0438L78.0094 59.0344C77.8969 59.0344 66.6844 58.7813 54.7125 59.6063L54.15 59.6438C50.0625 59.925 45.8344 60.2063 42.4219 62.0344C37.95 64.4156 36.45 69.8531 35.6438 74.325C35.475 75.2531 34.8281 76.0125 33.9563 76.3219C33.1219 76.6125 31.9219 76.5188 31.0688 75.3938C29.1656 72.8719 28.7625 69.2063 28.4719 66.525L28.4625 66.4219C27.7875 60.3188 27.4219 52.2 28.5938 49.4156C29.4281 47.4375 31.9313 42.2719 37.2 37.1813C41.2313 33.2813 46.7344 29.8594 53.5406 27C60.2625 24.1781 66.2719 22.7813 68.5406 22.3031C75.1781 20.925 81.5063 20.4375 87.3469 20.8406C91.4719 21.1313 94.95 21.6375 97.9781 22.4063C101.672 23.3438 104.541 25.1156 106.275 27.5344C107.194 28.8094 107.766 30.15 108.309 31.4438C108.9 32.8219 109.453 34.125 110.363 35.0906C111.394 36.1875 112.659 37.0969 114.009 38.0531C115.388 39.0375 116.803 40.05 118.078 41.3438C121.125 44.4469 124.875 49.9969 125.419 55.425C125.916 60.3656 123.684 64.7906 121.678 68.1C121.444 68.4938 120.244 70.3594 119.081 72.0469C116.634 75.6281 115.95 76.3313 114.759 76.4531C114.684 76.4813 114.6 76.4813 114.516 76.4813ZM94.3219 47.2313C95.5219 47.2313 96.6563 47.9438 97.8094 48.75L97.9219 48.825C100.2 50.4094 101.822 51.8906 102.581 52.6406C103.397 53.4375 104.363 54.5063 106.434 57.1313C110.981 62.8969 113.456 67.425 114.9 70.2469C116.081 68.5594 117.459 66.4406 117.853 65.7844C119.494 63.0844 121.322 59.5125 120.966 55.8938C120.563 51.9 117.628 47.2969 114.891 44.5125C113.897 43.5 112.688 42.6375 111.422 41.7281C109.95 40.6781 108.431 39.6 107.1 38.175C105.656 36.6281 104.878 34.8188 104.194 33.225C103.716 32.1094 103.266 31.05 102.638 30.1688C101.241 28.2188 98.7469 27.2531 96.8906 26.7844C94.125 26.0813 90.9094 25.6125 87.0469 25.3406C81.6094 24.9656 75.6938 25.425 69.4688 26.7188C66.2906 27.375 49.9406 31.1438 40.3406 40.4156C35.5406 45.0563 33.3281 49.8094 32.7563 51.1594C32.4 52.0031 31.9594 56.8969 32.9531 65.9344L32.9625 66.0375C32.9906 66.2719 33.0188 66.5156 33.0469 66.7594C34.4063 63.3 36.5813 60.0656 40.3219 58.0688C44.5875 55.7906 49.5188 55.4625 53.8594 55.1625L54.4219 55.125C66.6094 54.2813 78.0188 54.5438 78.1406 54.5438L78.4031 54.5531C81.5438 54.6281 84.7969 54.7125 87.8813 52.7813C89.4938 51.7781 90.8719 50.3531 91.9594 48.5531C92.3531 47.9063 92.9719 47.4656 93.7125 47.2969C93.9 47.25 94.1063 47.2313 94.3219 47.2313ZM95.8031 50.8594C95.8031 50.8594 95.7938 50.8688 95.8031 50.8594C95.7938 50.8688 95.8031 50.8594 95.8031 50.8594Z" fill="black"/>
<path d="M76.1531 139.153C73.725 139.153 70.9594 138.919 67.9781 138.263C65.325 137.681 58.425 135.712 51.6188 130.144C48.3563 127.472 42.3844 121.584 38.9813 112.125C37.9125 109.153 37.275 105.909 36.9656 104.053C34.4156 103.05 32.0625 101.4 30.1125 99.2062C27.8438 96.6656 26.2594 93.6 25.5375 90.3281C24.8531 87.2438 24.9844 84.0656 25.9125 81.1406C26.9438 77.8969 28.9031 75 31.725 72.525C32.6625 71.7094 34.0781 71.8031 34.9031 72.7406C35.7188 73.6781 35.625 75.0938 34.6875 75.9188C29.0531 80.8406 29.2875 86.4563 29.9344 89.3625C31.0688 94.5 34.9594 98.8594 39.6188 100.209C40.4719 100.453 41.1 101.184 41.2219 102.066C41.5125 104.25 42.2156 107.794 43.2281 110.606C46.3781 119.363 52.1438 124.753 54.4781 126.666C60.525 131.616 66.6188 133.35 68.9531 133.866C75.6 135.338 81.1125 134.362 83.175 133.875C88.7906 132.553 92.5594 129.956 94.1719 128.85C95.3344 128.053 98.3625 125.803 101.438 122.166C105.928 116.85 109.097 109.95 110.869 101.644C111.066 100.744 111.787 100.05 112.697 99.8906C116.541 99.2438 119.888 94.05 120.319 88.0594C120.478 85.8563 120.478 78.5156 113.794 76.3594C112.613 75.975 111.956 74.7094 112.341 73.5281C112.725 72.3469 113.991 71.6906 115.172 72.075C121.688 74.1656 125.381 80.4188 124.8 88.3781C124.537 92.0438 123.366 95.6438 121.5 98.5125C119.747 101.203 117.469 103.087 114.956 103.941C114.216 107.1 113.259 110.109 112.106 112.913C110.213 117.534 107.775 121.622 104.869 125.062C101.569 128.972 98.3438 131.428 96.7219 132.544C94.9031 133.791 90.6469 136.716 84.2063 138.244C82.4719 138.666 79.6688 139.153 76.1531 139.153Z" fill="black"/>
<path d="M136.378 101.269H128.578C127.331 101.269 126.328 100.266 126.328 99.0187V70.5656C126.328 69.3187 127.331 68.3156 128.578 68.3156H136.378C142.237 68.3156 147 73.0781 147 78.9375V90.6469C147 96.4969 142.237 101.269 136.378 101.269ZM130.837 96.7687H136.388C139.763 96.7687 142.509 94.0219 142.509 90.6469V78.9375C142.509 75.5625 139.763 72.8156 136.388 72.8156H130.837V96.7687Z" fill="black"/>
<path d="M21.4125 101.269H13.6219C7.7625 101.269 3 96.5062 3 90.6469V78.9375C3 73.0781 7.7625 68.3156 13.6219 68.3156H21.4125C22.6594 68.3156 23.6625 69.3187 23.6625 70.5656V99.0187C23.6625 100.256 22.6594 101.269 21.4125 101.269ZM13.6219 72.8156C10.2469 72.8156 7.5 75.5625 7.5 78.9375V90.6469C7.5 94.0219 10.2469 96.7687 13.6219 96.7687H19.1625V72.8156H13.6219Z" fill="black"/>
<path d="M127.716 114.497H89.5312C88.2844 114.497 87.2812 113.494 87.2812 112.247C87.2812 111 88.2844 109.997 89.5312 109.997H127.716C131.175 109.997 133.987 107.184 133.987 103.725V99.0094C133.987 97.7625 134.991 96.7594 136.237 96.7594C137.484 96.7594 138.487 97.7625 138.487 99.0094V103.725C138.487 109.669 133.65 114.497 127.716 114.497Z" fill="black"/>
<path d="M85.1437 119.147H80.775C77.1187 119.147 74.1375 116.166 74.1375 112.509V111.994C74.1375 108.338 77.1187 105.356 80.775 105.356H85.1437C88.8 105.356 91.7812 108.338 91.7812 111.994V112.509C91.7812 116.166 88.8 119.147 85.1437 119.147ZM80.7844 109.847C79.6031 109.847 78.6469 110.803 78.6469 111.984V112.5C78.6469 113.681 79.6031 114.638 80.7844 114.638H85.1531C86.3344 114.638 87.2906 113.681 87.2906 112.5V111.984C87.2906 110.803 86.3344 109.847 85.1531 109.847H80.7844Z" fill="black"/>
<path d="M136.181 72.8156C135 72.8156 134.016 71.8969 133.941 70.7063C133.041 56.4188 126.928 42.9188 116.709 32.7094C105.516 21.5156 90.7031 15.3563 75 15.3563C43.8937 15.3563 18.0094 39.6656 16.0594 70.7063C15.9844 71.9438 14.9156 72.8906 13.6687 72.8156C12.4312 72.7406 11.4844 71.6719 11.5594 70.425C12.0656 62.3063 14.1094 54.4781 17.6156 47.1375C21.0375 40.0219 25.6875 33.6563 31.4531 28.2188C43.3219 17.0156 58.7906 10.8563 75 10.8563C83.5406 10.8563 91.8469 12.5438 99.6844 15.8719C107.241 19.0875 114.047 23.6813 119.887 29.5219C130.875 40.5188 137.466 55.0406 138.431 70.425C138.506 71.6625 137.569 72.7313 136.322 72.8156C136.275 72.8156 136.228 72.8156 136.181 72.8156Z" fill="black"/>
</svg>
