<?xml version="1.0" encoding="utf-8"?>
<!-- Generator: Adobe Illustrator 23.0.3, SVG Export Plug-In . SVG Version: 6.00 Build 0)  -->
<svg version="1.1" id="Layer_1" xmlns="http://www.w3.org/2000/svg" xmlns:xlink="http://www.w3.org/1999/xlink" x="0px" y="0px"
	 viewBox="0 0 58.32 45.11" style="enable-background:new 0 0 58.32 45.11;" xml:space="preserve">
<style type="text/css">
	.st0{fill:#FFFFFF;}
</style>
<g>
	<g>
		<path class="st0" d="M42.87,12.77H15.45c-0.54,0-0.97-0.43-0.97-0.97v-0.42c0-0.54,0.43-0.97,0.97-0.97h27.42
			c0.54,0,0.97,0.43,0.97,0.97v0.42C43.84,12.34,43.41,12.77,42.87,12.77z"/>
		<path class="st0" d="M39.96,18.69h-21.6c-0.54,0-0.97-0.43-0.97-0.97V17.3c0-0.54,0.43-0.97,0.97-0.97h21.6
			c0.54,0,0.97,0.43,0.97,0.97v0.42C40.93,18.25,40.49,18.69,39.96,18.69z"/>
		<path class="st0" d="M42.87,24.6H15.45c-0.54,0-0.97-0.43-0.97-0.97v-0.42c0-0.54,0.43-0.97,0.97-0.97h27.42
			c0.54,0,0.97,0.43,0.97,0.97v0.42C43.84,24.17,43.41,24.6,42.87,24.6z"/>
		<path class="st0" d="M39.96,30.52h-21.6c-0.54,0-0.97-0.43-0.97-0.97v-0.42c0-0.54,0.43-0.97,0.97-0.97h21.6
			c0.54,0,0.97,0.43,0.97,0.97v0.42C40.93,30.08,40.49,30.52,39.96,30.52z"/>
	</g>
</g>
</svg>
