<svg width="150" height="150" viewBox="0 0 150 150" fill="none" xmlns="http://www.w3.org/2000/svg">
<g clip-path="url(#clip0_6_114)">
<path d="M126.818 21.3152C97.3923 -7.10507 50.741 -7.10507 21.3152 21.3152C-7.81875 51.4799 -6.98319 99.5505 23.1815 128.684C52.6073 157.105 99.2586 157.105 128.684 128.684C157.818 98.5201 156.983 50.4492 126.818 21.3152ZM125.116 125.116L125.09 125.09C97.401 152.755 52.5281 152.734 24.8639 125.045C-2.80035 97.3553 -2.77988 52.4827 24.9096 24.8185C52.599 -2.84571 97.4718 -2.82524 125.136 24.8639C138.424 38.164 145.883 56.199 145.871 74.9998C145.872 93.7965 138.406 111.824 125.116 125.116Z" fill="black"/>
<path d="M117.649 96.6155L103.424 82.4413C100.196 79.2052 94.9554 79.199 91.7194 82.4273C91.7146 82.4321 91.7102 82.4365 91.7054 82.4413L83.5554 90.5913C82.9387 91.2095 81.967 91.2949 81.2522 90.7939C76.7914 87.6765 72.6157 84.1696 68.774 80.3151C65.3332 76.8821 62.1681 73.184 59.3075 69.2541C58.7891 68.5482 58.8644 67.5694 59.4846 66.9509L67.8372 58.5983C71.062 55.3673 71.062 50.1356 67.8372 46.9046L53.6126 32.6799C50.3347 29.5462 45.1715 29.5462 41.8937 32.6799L37.3884 37.1852C30.5844 43.9127 28.1554 53.902 31.1112 63.0024C33.3168 69.6605 36.4345 75.9807 40.375 81.7831C43.9225 87.1025 47.9923 92.0542 52.5243 96.5648C57.4513 101.527 62.909 105.932 68.7992 109.701C75.2742 113.926 82.3838 117.088 89.8578 119.066C91.7793 119.54 93.7512 119.778 95.7299 119.775C102.514 119.733 109.004 117.003 113.777 112.181L117.649 108.309C120.874 105.078 120.874 99.8465 117.649 96.6155ZM114.065 104.857C114.061 104.86 114.058 104.864 114.055 104.867L114.08 104.791L110.207 108.664C105.232 113.702 97.985 115.775 91.0974 114.131C84.1581 112.273 77.5614 109.317 71.5574 105.373C65.9793 101.808 60.8099 97.6409 56.143 92.9455C51.8489 88.6829 47.9912 84.0023 44.6264 78.9739C40.946 73.563 38.033 67.6687 35.97 61.4585C33.6051 54.163 35.5648 46.1577 41.0323 40.7796L45.5376 36.2743C46.7902 35.0161 48.8255 35.0116 50.0835 36.2642C50.0867 36.2675 50.0903 36.2707 50.0935 36.2743L64.3182 50.499C65.5765 51.7516 65.5809 53.7869 64.3283 55.0449C64.3251 55.0481 64.3218 55.0514 64.3182 55.055L55.9656 63.4076C53.569 65.7781 53.2676 69.5451 55.257 72.2665C58.278 76.4126 61.6211 80.314 65.2549 83.935C69.3064 88.004 73.7108 91.7054 78.4165 94.996C81.1356 96.8926 84.8219 96.5728 87.1741 94.2367L95.2482 86.0359C96.5008 84.7777 98.5361 84.7732 99.7941 86.0258C99.7973 86.0291 99.8006 86.0324 99.8042 86.0359L114.054 100.311C115.313 101.564 115.317 103.599 114.065 104.857Z" fill="black"/>
</g>
<defs>
<clipPath id="clip0_6_114">
<rect width="150" height="150" fill="white"/>
</clipPath>
</defs>
</svg>
