<svg width="150" height="150" viewBox="0 0 150 150" fill="none" xmlns="http://www.w3.org/2000/svg">
<path d="M74.9999 9.38043C46.5505 9.38043 23.442 32.4843 23.4419 60.9337C23.4419 79.6057 36.1342 99.1614 48.5823 114.277C61.0304 129.392 73.4801 140.054 73.4801 140.054C74.3567 140.802 75.6475 140.802 76.5242 140.054C76.5242 140.054 88.9739 129.392 101.422 114.277C113.87 99.1614 126.558 79.6057 126.558 60.9337C126.558 32.4843 103.449 9.38043 74.9999 9.38043ZM74.9999 14.0677C100.916 14.0677 121.87 35.0176 121.87 60.9337C121.87 77.4182 109.967 96.534 97.8056 111.301C86.4049 125.145 76.3816 133.716 74.9999 134.917C73.6181 133.716 63.5994 125.145 52.1986 111.301C40.0373 96.534 28.134 77.4182 28.134 60.9337C28.1341 35.0176 49.0838 14.0677 74.9999 14.0677V14.0677ZM51.3335 35.1569C50.4137 35.2491 49.6338 35.8727 49.3422 36.75L44.6547 50.8125C44.575 51.0534 44.5347 51.305 44.5357 51.5583V58.5805C44.5357 62.0217 46.4369 65.0194 49.2232 66.6507V93.7367C49.2183 95.0311 50.2634 96.0846 51.5578 96.0897H98.4465C99.7409 96.0851 100.786 95.0311 100.781 93.7367V66.6464C103.564 65.0143 105.469 62.0196 105.469 58.5805V51.5583H105.464C105.466 51.305 105.428 51.0534 105.349 50.8125L100.657 36.75C100.336 35.8011 99.4481 35.161 98.4464 35.1569C82.7421 35.1658 67.0376 35.1392 51.3334 35.1569H51.3335ZM53.2515 39.8445H96.7482L99.8793 49.224H50.1204L53.2515 39.8445ZM49.2232 53.8932H58.5982V58.5807C58.5982 61.2182 56.5481 63.2729 53.9107 63.2729C51.2733 63.2729 49.2232 61.2181 49.2232 58.5807V53.8932ZM63.2903 53.8932H72.6469V58.5807C72.6469 61.2182 70.6152 63.2729 67.9778 63.2729C65.3404 63.2729 63.2903 61.2181 63.2903 58.5807V53.8932ZM77.3344 53.8932H86.714V58.5807C86.714 61.2182 84.664 63.2729 82.0265 63.2729C79.3892 63.2729 77.3344 61.2181 77.3344 58.5807V53.8932ZM91.4015 53.8932H100.781V58.5807C100.781 61.2181 98.7264 63.2729 96.089 63.2729C93.4516 63.2729 91.4015 61.2182 91.4015 58.5807V53.8932ZM60.9419 64.7057C62.6651 66.6809 65.1698 67.9605 67.9778 67.9605C70.7834 67.9605 73.2769 66.6827 74.9953 64.7103C76.7183 66.6827 79.2209 67.9605 82.0265 67.9605C84.8341 67.9605 87.3346 66.6805 89.0578 64.7057C90.7809 66.6805 93.2814 67.9605 96.089 67.9605V91.4024H84.3794V75.0008C84.3843 73.6992 83.328 72.6427 82.0265 72.6478H67.9778C66.6762 72.6431 65.6199 73.6992 65.6248 75.0008V91.4024H53.9107V67.9605C56.7182 67.9605 59.2188 66.6805 60.9419 64.7057V64.7057ZM70.3123 77.34H79.6919V91.4024H70.3123V77.34Z" fill="black"/>
</svg>
