<svg width="150" height="150" viewBox="0 0 150 150" fill="none" xmlns="http://www.w3.org/2000/svg">
<path d="M115.03 28.5246C114.712 27.7686 114.038 27.2211 113.233 27.0646C112.428 26.9081 111.598 27.1633 111.02 27.7451L98.6533 40.1754H91.5467V32.9901L103.92 20.5279C104.496 19.9478 104.746 19.1198 104.587 18.3183C104.428 17.5168 103.882 16.8464 103.129 16.5295C94.9632 13.0832 85.5348 14.7574 79.055 20.8043C72.5753 26.8512 70.2542 36.1415 73.1287 44.5254L71.6754 46.0008L60.809 35.0656L60.8483 35.0262C61.345 34.5277 61.6043 33.8402 61.5606 33.1379C61.5169 32.4355 61.1743 31.7855 60.6197 31.3524L44.7246 18.9344C43.7441 18.1671 42.3448 18.2537 41.4664 19.1361L34.4016 26.2303C33.5306 27.106 33.4444 28.4919 34.2 29.4688L46.5639 45.4524C46.9999 46.016 47.659 46.3626 48.3703 46.4027C49.0817 46.4428 49.7755 46.1724 50.2721 45.6615L61.1287 56.5746L36.1156 81.7131C32.2451 85.622 32.2451 91.9189 36.1156 95.8278C37.9666 97.7243 40.5045 98.7936 43.1545 98.7936C45.8045 98.7936 48.3424 97.7243 50.1934 95.8278L71.6606 74.2647L94.4606 97.1582C96.7877 99.5046 99.9556 100.824 103.26 100.824C106.565 100.824 109.733 99.5046 112.06 97.1582C116.901 92.2705 116.901 84.3951 112.06 79.5074L92.3582 59.7C100.223 60.3962 107.876 56.9154 112.519 50.5302C117.163 44.145 118.116 35.7917 115.03 28.5246V28.5246ZM52.018 40.4508C51.1297 39.5817 49.7384 39.4959 48.75 40.2492L39.4057 28.1803L43.409 24.1574L55.4139 33.541C55.3362 33.6604 55.2687 33.7863 55.2123 33.9172C55.0278 34.1868 54.9277 34.5053 54.9246 34.832C54.7647 36.4279 54.7721 35.9852 68.1811 49.4877L64.591 53.0951L52.018 40.4508ZM46.7065 92.3705C44.7251 94.3322 41.5285 94.3162 39.5668 92.3348C37.605 90.3534 37.621 87.1568 39.6024 85.1951C57.6713 67.0229 22.3475 102.541 73.2172 51.3934C73.2492 51.3688 73.2639 51.327 73.2934 51.3C73.8541 50.8082 71.9459 52.7115 77.7197 46.8738C78.4203 46.1663 78.6252 45.1061 78.2385 44.1885C75.7111 38.2383 76.6478 31.3816 80.6786 26.3274C84.7093 21.2731 91.1858 18.8343 97.5492 19.9746L87.3418 30.2459C86.8845 30.7069 86.6282 31.3301 86.6287 31.9795V42.6246C86.6287 43.9826 87.7296 45.0836 89.0877 45.0836H99.6762C100.331 45.0835 100.958 44.8224 101.42 44.3582L111.605 34.1213C112.788 40.4683 110.391 46.9524 105.364 51.0039C100.337 55.0553 93.4918 56.02 87.541 53.5156C86.616 53.1225 85.5449 53.3318 84.836 54.0442L80.5156 58.3893C75.2631 63.6639 69.6492 69.2828 69.9074 69.0246C67.5369 71.4049 78.5115 60.3836 46.7065 92.3582V92.3705ZM108.573 93.7008C105.605 96.5528 100.915 96.5528 97.9475 93.7008L75.1328 70.7877L85.7901 60.0811L108.573 82.9844C111.499 85.9524 111.499 90.7205 108.573 93.6885V93.7008Z" fill="black"/>
<path d="M131.557 0H18.4426C8.94056 0.0108409 1.24033 7.71107 1.22949 17.2131V100.82C1.24033 110.322 8.94056 118.022 18.4426 118.033H43.1262C43.1262 122.412 42.1647 132.433 34.2934 138.883C32.6188 140.221 32.0035 142.489 32.7725 144.49C33.5415 146.49 35.5178 147.763 37.6574 147.634C49.827 146.803 70.7459 141.76 76.886 118.033H131.557C141.059 118.022 148.76 110.322 148.77 100.82V17.2131C148.76 7.71107 141.059 0.0108409 131.557 0ZM143.852 100.82C143.844 107.607 138.344 113.107 131.557 113.115C71.8033 113.115 74.9852 113.036 74.2623 113.262C73.6688 113.444 73.1707 113.852 72.8754 114.398C72.777 114.573 72.5877 115.06 72.5877 115.06C67.8172 137.356 48.4426 141.966 37.4115 142.684C49.7065 132.602 48.0123 116.004 47.936 115.303C47.936 115.276 47.7344 114.61 47.6901 114.507C47.5356 114.24 47.3499 113.992 47.1369 113.769C46.1557 112.869 47.4934 113.115 18.4426 113.115C11.6556 113.107 6.15565 107.607 6.14752 100.82V17.2131C6.15565 10.4261 11.6556 4.92616 18.4426 4.91803H131.557C138.344 4.92616 143.844 10.4261 143.852 17.2131V100.82Z" fill="black"/>
<path d="M18.4426 9.83606H15.9836C14.6255 9.83606 13.5246 10.937 13.5246 12.2951C13.5246 13.6532 14.6255 14.7541 15.9836 14.7541H18.4426C19.8007 14.7541 20.9016 13.6532 20.9016 12.2951C20.9016 10.937 19.8007 9.83606 18.4426 9.83606Z" fill="black"/>
<path d="M43.0328 12.2951C43.0328 10.937 41.9318 9.83606 40.5737 9.83606H28.2787C26.9206 9.83606 25.8196 10.937 25.8196 12.2951C25.8196 13.6532 26.9206 14.7541 28.2787 14.7541H40.5737C41.9318 14.7541 43.0328 13.6532 43.0328 12.2951Z" fill="black"/>
<path d="M111.885 103.279H109.426C108.068 103.279 106.967 104.38 106.967 105.738C106.967 107.096 108.068 108.197 109.426 108.197H111.885C113.243 108.197 114.344 107.096 114.344 105.738C114.344 104.38 113.243 103.279 111.885 103.279Z" fill="black"/>
<path d="M134.016 103.279H121.721C120.363 103.279 119.262 104.38 119.262 105.738C119.262 107.096 120.363 108.197 121.721 108.197H134.016C135.374 108.197 136.475 107.096 136.475 105.738C136.475 104.38 135.374 103.279 134.016 103.279Z" fill="black"/>
</svg>
