<svg width="150" height="150" viewBox="0 0 150 150" fill="none" xmlns="http://www.w3.org/2000/svg">
<g clip-path="url(#clip0_5_89)">
<path d="M26.3821 116.001C24.2821 116.001 22.2633 116.525 20.4723 117.509C11.0378 105.415 5.85938 90.3912 5.85938 75C5.85938 36.8752 36.8752 5.85938 75 5.85938C79.6349 5.85938 84.2674 6.32057 88.7695 7.23038C90.3534 7.55081 91.9006 6.52542 92.2211 4.93927C92.5415 3.35312 91.5161 1.80817 89.93 1.48659C85.0468 0.500107 80.024 0 75 0C54.9671 0 36.1324 7.80144 21.9669 21.9669C7.80144 36.1324 0 54.9671 0 75C0 91.8514 5.72205 108.297 16.1396 121.48C14.7984 123.484 14.0774 125.839 14.0774 128.305C14.0774 131.592 15.358 134.682 17.6823 137.005C20.0054 139.33 23.0953 140.61 26.3821 140.61C29.6688 140.61 32.7587 139.33 35.083 137.005C37.4073 134.682 38.6868 131.591 38.6868 128.304C38.6868 125.019 37.4073 121.928 35.083 119.604C32.7587 117.28 29.6688 116.001 26.3821 116.001V116.001ZM30.9391 132.862C29.7226 134.08 28.1033 134.751 26.3821 134.751C24.6609 134.751 23.0427 134.08 21.825 132.862C20.6074 131.645 19.9368 130.027 19.9368 128.305C19.9368 126.583 20.6074 124.965 21.825 123.747C23.0415 122.53 24.6609 121.86 26.3821 121.86C28.1033 121.86 29.7215 122.531 30.9391 123.747C32.1568 124.965 32.8274 126.583 32.8274 128.305C32.8274 130.027 32.1568 131.645 30.9391 132.862V132.862Z" fill="black"/>
<path d="M133.858 28.5164C137.043 23.7385 136.531 17.2062 132.319 12.9936C129.995 10.6705 126.905 9.38989 123.618 9.38989C120.331 9.38989 117.241 10.6705 114.917 12.9936C112.593 15.3179 111.313 18.4078 111.313 21.6946C111.313 24.9813 112.593 28.0712 114.917 30.3955C117.241 32.7198 120.331 33.9993 123.618 33.9993C125.718 33.9993 127.737 33.4751 129.528 32.4909C138.962 44.5862 144.141 59.6089 144.141 75C144.141 113.125 113.125 144.141 75 144.141C70.4109 144.141 65.8219 143.689 61.3621 142.796C59.7759 142.479 58.2321 143.508 57.914 145.094C57.597 146.681 58.6258 148.224 60.212 148.542C65.0494 149.509 70.0253 150 75 150C95.0329 150 113.868 142.199 128.033 128.033C142.199 113.868 150 95.0329 150 75C150 58.1474 144.277 41.7011 133.858 28.5164V28.5164ZM119.061 26.2528C117.843 25.0351 117.173 23.4169 117.173 21.6946C117.173 19.9734 117.843 18.3552 119.061 17.1375C120.277 15.9199 121.897 15.2493 123.618 15.2493C125.339 15.2493 126.958 15.9199 128.176 17.1375C130.688 19.6507 130.688 23.7396 128.176 26.2528C126.958 27.4693 125.339 28.1399 123.618 28.1399C121.896 28.1399 120.277 27.4693 119.061 26.2528Z" fill="black"/>
<path d="M62.9105 125.391C62.9105 127.009 64.2231 128.32 65.8402 128.32H84.1587C85.7769 128.32 87.0884 127.009 87.0884 125.391V119.711C90.9405 118.674 94.6232 117.147 98.0839 115.154L102.094 119.164C102.643 119.713 103.388 120.022 104.166 120.022C104.942 120.022 105.688 119.713 106.238 119.163L119.186 106.206C120.329 105.061 120.329 103.206 119.186 102.063L115.18 98.0576C117.174 94.5969 118.7 90.9142 119.737 87.0621H125.395C127.013 87.0621 128.325 85.7506 128.325 84.1324V65.8138C128.325 64.1956 127.013 62.8841 125.395 62.8841H119.736C118.699 59.0332 117.174 55.3505 115.18 51.8898L119.164 47.9061C119.713 47.3568 120.022 46.6106 120.022 45.8336C120.021 45.0565 119.712 44.3104 119.163 43.7611L106.205 30.8132C105.061 29.67 103.206 29.67 102.062 30.8144L98.0839 34.7935C94.6232 32.7999 90.9405 31.2733 87.0884 30.2364V24.6094C87.0884 22.9912 85.7769 21.6797 84.1587 21.6797H65.8402C64.2231 21.6797 62.9105 22.9912 62.9105 24.6094V30.2376C59.0595 31.2733 55.3768 32.7999 51.9161 34.7935L47.937 30.8144C46.7937 29.6711 44.9387 29.67 43.7943 30.8132L30.8373 43.7622C30.2868 44.3115 29.9778 45.0565 29.9778 45.8336C29.9778 46.6106 30.2868 47.3568 30.8361 47.9061L34.8198 51.8898C32.8262 55.3505 31.2996 59.0321 30.2628 62.8841H24.6151C22.9969 62.8841 21.6854 64.1956 21.6854 65.8127L21.6751 84.1312C21.674 84.9083 21.983 85.6544 22.5323 86.2038C23.0816 86.7531 23.8266 87.0621 24.6048 87.0621H30.2628C31.2996 90.9142 32.8262 94.5969 34.8198 98.0576L30.8144 102.063C29.6711 103.206 29.67 105.061 30.8144 106.206L43.7622 119.163C44.3115 119.712 45.0565 120.022 45.8336 120.022H45.8347C46.6118 120.022 47.3568 119.713 47.9061 119.164L51.915 115.154C55.3768 117.147 59.0595 118.674 62.9105 119.711V125.391ZM53.064 108.992C51.9047 108.243 50.3792 108.405 49.4019 109.381L45.8347 112.949L37.0285 104.136L40.5922 100.571C41.5684 99.5945 41.7309 98.069 40.9813 96.9097C38.3251 92.799 36.4574 88.2935 35.4321 83.5167C35.1414 82.1674 33.9489 81.2027 32.5676 81.2027H27.5356L27.5425 68.7435H32.5676C33.9489 68.7435 35.1414 67.7799 35.4321 66.4295C36.4574 61.6539 38.3251 57.1484 40.9813 53.0376C41.7309 51.8784 41.5684 50.3529 40.5922 49.3767L37.0514 45.8347L45.8645 37.0285L49.4019 40.567C50.3792 41.5432 51.9035 41.7046 53.064 40.9561C57.1735 38.2999 61.6791 36.4323 66.4558 35.4069C67.8051 35.1162 68.7698 33.9226 68.7698 32.5424V27.5391H81.229V32.5413C81.229 33.9226 82.1926 35.1162 83.543 35.4057C88.3186 36.4323 92.8253 38.2988 96.9349 40.955C98.0942 41.7046 99.6197 41.5432 100.596 40.5659L104.134 37.0285L112.947 45.8347L109.407 49.3755C108.429 50.3529 108.268 51.8784 109.018 53.0376C111.674 57.1484 113.54 61.6539 114.567 66.4295C114.856 67.7799 116.05 68.7435 117.431 68.7435H122.466V81.2027H117.431C116.05 81.2027 114.857 82.1674 114.567 83.5167C113.541 88.2923 111.674 92.799 109.018 96.9086C108.268 98.069 108.43 99.5945 109.407 100.571L112.97 104.134L104.164 112.947L100.597 109.381C99.6197 108.404 98.0942 108.243 96.9349 108.992C92.8242 111.649 88.3186 113.515 83.543 114.542C82.1926 114.832 81.229 116.025 81.229 117.406V122.461H68.7698V117.406C68.7698 116.026 67.8051 114.832 66.4558 114.542C61.6802 113.516 57.1747 111.649 53.064 108.992V108.992Z" fill="black"/>
<path d="M99.2077 75C99.2077 61.6516 88.3484 50.7923 75 50.7923C61.6516 50.7923 50.7923 61.6516 50.7923 75C50.7923 88.3484 61.6516 99.2077 75 99.2077C88.3484 99.2077 99.2077 88.3484 99.2077 75ZM56.6517 75C56.6517 64.8823 64.8823 56.6517 75 56.6517C85.1177 56.6517 93.3483 64.8834 93.3483 75C93.3483 85.1166 85.1177 93.3483 75 93.3483C64.8823 93.3483 56.6517 85.1177 56.6517 75Z" fill="black"/>
<path d="M101.976 11.0802C102.747 11.0802 103.503 10.7666 104.047 10.2218C104.592 9.67368 104.906 8.91837 104.906 8.14703C104.906 7.38028 104.593 6.62383 104.047 6.07565C103.503 5.53091 102.747 5.21735 101.976 5.21735C101.202 5.21735 100.451 5.53091 99.9058 6.07565C99.3599 6.62383 99.0463 7.37685 99.0463 8.14703C99.0463 8.92065 99.3599 9.67368 99.9058 10.2218C100.451 10.7666 101.202 11.0802 101.976 11.0802Z" fill="black"/>
<path d="M48.1522 138.972C47.382 138.972 46.6255 139.286 46.0808 139.831C45.536 140.376 45.2225 141.132 45.2225 141.902C45.2225 142.676 45.536 143.429 46.0808 143.974C46.6255 144.518 47.382 144.832 48.1522 144.832C48.9223 144.832 49.6788 144.518 50.2235 143.974C50.7683 143.429 51.0818 142.672 51.0818 141.902C51.0818 141.132 50.7683 140.376 50.2235 139.831C49.6788 139.286 48.9223 138.972 48.1522 138.972Z" fill="black"/>
</g>
<defs>
<clipPath id="clip0_5_89">
<rect width="150" height="150" fill="white"/>
</clipPath>
</defs>
</svg>
