<svg width="150" height="150" viewBox="0 0 150 150" fill="none" xmlns="http://www.w3.org/2000/svg">
<g clip-path="url(#clip0_2_3)">
<path d="M123.047 150H10.3125C8.90625 150 7.96875 149.063 7.96875 147.656V85.5469C7.96875 84.1406 8.90625 83.2031 10.3125 83.2031C11.7188 83.2031 12.6562 84.1406 12.6562 85.5469V145.312H120.703V98.9063C120.703 97.5 121.641 96.5625 123.047 96.5625C124.453 96.5625 125.391 97.5 125.391 98.9063V147.656C125.391 149.063 124.453 150 123.047 150Z" fill="black"/>
<path d="M53.6719 67.7344H28.125C27.4219 67.7344 26.4844 67.2656 26.25 66.5625C26.0157 65.8594 25.7813 65.1562 26.0157 64.2187L39.1407 35.3906C39.6094 34.4531 40.3125 33.9844 41.25 33.9844H58.125C58.8282 33.9844 59.5313 34.2188 60 34.6875C60.4688 35.1563 60.7032 35.8594 60.4688 36.5625L56.0157 65.3906C55.7813 66.7969 54.8438 67.7344 53.6719 67.7344V67.7344ZM31.875 63.0469H51.5625L55.3125 38.9063H42.6563L31.875 63.0469Z" fill="black"/>
<path d="M90.2344 67.7344H79.4531C78.2813 67.7344 77.3438 66.7969 77.1094 65.625L75.9375 57.4219L72.6562 37.0312C72.6562 36.3281 72.6563 35.625 73.125 35.1562C73.5938 34.6875 74.2969 34.2188 75 34.2188H79.4531C80.8594 34.2188 81.7969 35.1563 81.7969 36.5625C81.7969 37.9688 80.8594 38.9063 79.4531 38.9063H77.8125L81.5625 63.0469H90.2344C91.6406 63.0469 92.5781 63.9844 92.5781 65.3906C92.5781 66.7969 91.6406 67.7344 90.2344 67.7344V67.7344Z" fill="black"/>
<path d="M28.125 67.7344H2.34377C1.40627 67.7344 0.70314 67.2656 0.23439 66.3281C-0.23436 65.3906 1.54078e-05 64.6875 0.468765 63.9844L20.3906 37.9688C21.7969 35.625 24.6094 34.2188 27.8906 34.2188H41.25C41.9531 34.2188 42.8906 34.6875 43.125 35.3906C43.3594 36.0938 43.5938 36.7969 43.3594 37.7344L30.2344 66.5625C29.7656 67.2656 29.0625 67.7344 28.125 67.7344V67.7344ZM7.03127 63.0469H26.4844L37.5 38.9063H27.8906C26.9531 38.9063 25.0781 39.1406 24.1406 40.5469L7.03127 63.0469Z" fill="black"/>
<path d="M79.4532 67.7344H53.6719C52.9688 67.7344 52.2657 67.5 51.7969 67.0313C51.3282 66.5625 51.0938 65.8594 51.3282 65.1562L55.7813 36.3281C56.0157 35.1563 56.9532 34.4531 58.125 34.4531H75C76.1719 34.4531 77.1094 35.3906 77.3438 36.3281L81.7969 65.1562C81.7969 65.8594 81.7969 66.5625 81.3282 67.0313C80.8594 67.5 80.1563 67.7344 79.4532 67.7344ZM56.4844 63.0469H76.875L73.125 38.9063H60.2344L56.4844 63.0469Z" fill="black"/>
<path d="M41.0156 88.5937C32.8125 88.5937 25.7812 81.5625 25.7812 73.3594V65.3906C25.7812 63.9844 26.7187 63.0469 28.125 63.0469H53.9062C55.3125 63.0469 56.25 63.9844 56.25 65.3906V73.3594C56.25 81.5625 49.2188 88.5937 41.0156 88.5937ZM30.4688 67.7344V73.3594C30.4688 78.9844 35.3906 83.9062 41.0156 83.9062C46.6406 83.9062 51.5625 78.9844 51.5625 73.3594V67.7344H30.4688Z" fill="black"/>
<path d="M92.3438 88.5937C84.1406 88.5937 77.1094 81.5625 77.1094 73.3594V65.3906C77.1094 63.9844 78.0469 63.0469 79.4531 63.0469H90.2344C91.6406 63.0469 92.5781 63.9844 92.5781 65.3906C92.5781 66.7969 91.6406 67.7344 90.2344 67.7344H81.7969V73.3594C81.7969 78.9844 86.7187 83.9062 92.3438 83.9062C94.4531 83.9062 96.5625 83.2031 98.4375 81.7969C99.375 81.0938 101.016 81.0937 101.719 82.2656C102.422 83.2031 102.422 84.8438 101.25 85.5469C98.6719 87.4219 95.625 88.5937 92.3438 88.5937Z" fill="black"/>
<path d="M15.2344 88.5937C7.03125 88.5937 0 81.5625 0 73.3594V65.3906C0 63.9844 0.9375 63.0469 2.34375 63.0469H28.125C29.5313 63.0469 30.4688 63.9844 30.4688 65.3906V73.3594C30.4688 81.5625 23.4375 88.5937 15.2344 88.5937ZM4.6875 67.7344V73.3594C4.6875 78.9844 9.60937 83.9062 15.2344 83.9062C20.8594 83.9062 25.7812 78.9844 25.7812 73.3594V67.7344H4.6875Z" fill="black"/>
<path d="M66.5625 88.5937C58.3594 88.5937 51.3281 81.5625 51.3281 73.3594V65.3906C51.3281 63.9844 52.2656 63.0469 53.6719 63.0469H79.4531C80.8594 63.0469 81.7969 63.9844 81.7969 65.3906V73.3594C81.7969 81.5625 74.7656 88.5937 66.5625 88.5937ZM56.0156 67.7344V73.3594C56.0156 78.9844 60.9375 83.9062 66.5625 83.9062C72.1875 83.9062 77.1094 78.9844 77.1094 73.3594V67.7344H56.0156Z" fill="black"/>
<path d="M104.766 150H71.9531C70.5469 150 69.6094 149.062 69.6094 147.656V107.812C69.6094 103.359 72.8906 100.078 77.3437 100.078H99.1406C103.594 100.078 107.109 103.594 107.109 107.812V147.656C107.109 149.062 106.172 150 104.766 150V150ZM74.2969 145.312H102.422V107.812C102.422 106.406 101.25 104.766 99.1406 104.766H77.3437C75.4687 104.766 74.2969 105.937 74.2969 107.812V145.312Z" fill="black"/>
<path d="M97.0313 125.156H79.6875C78.2812 125.156 77.3438 124.219 77.3438 122.813V111.797C77.3438 110.391 78.2812 109.453 79.6875 109.453H97.0313C98.4375 109.453 99.375 110.391 99.375 111.797V122.813C99.375 124.219 98.4375 125.156 97.0313 125.156ZM82.0312 120.469H94.6875V114.141H82.0312V120.469Z" fill="black"/>
<path d="M129.844 150H3.28125C1.875 150 0.9375 149.063 0.9375 147.656C0.9375 146.25 1.875 145.312 3.28125 145.312H129.844C131.25 145.312 132.188 146.25 132.188 147.656C132.188 149.063 131.25 150 129.844 150Z" fill="black"/>
<path d="M117.891 92.5781C114.844 92.5781 112.031 90.9375 110.625 88.3594C99.375 68.9063 86.0157 43.3594 86.0157 31.875C86.0157 14.2969 100.313 0 117.891 0C135.234 0 150 14.5313 150 31.875C150 43.3594 136.641 68.9063 125.391 88.3594C123.75 90.9375 120.938 92.5781 117.891 92.5781ZM117.891 4.6875C102.891 4.6875 90.7032 16.875 90.7032 31.875C90.7032 40.0781 99.1407 59.2969 114.844 86.0156C115.547 87.1875 116.719 87.8906 118.125 87.8906C119.531 87.8906 120.703 87.1875 121.406 86.0156C136.875 59.2969 145.313 40.0781 145.313 31.875C145.313 17.1094 132.656 4.6875 117.891 4.6875V4.6875Z" fill="black"/>
<path d="M118.125 52.5C106.641 52.5 97.5 43.3594 97.5 31.875C97.5 20.3906 106.641 11.25 118.125 11.25C129.609 11.25 138.75 20.3906 138.75 31.875C138.75 43.3594 129.609 52.5 118.125 52.5V52.5ZM118.125 15.9375C109.219 15.9375 102.188 23.2031 102.188 31.875C102.188 40.5469 109.453 47.8125 118.125 47.8125C126.797 47.8125 134.063 40.5469 134.063 31.875C134.063 23.2031 126.797 15.9375 118.125 15.9375V15.9375Z" fill="black"/>
<path d="M53.4375 132.656H28.125C24.1406 132.656 21.0938 129.609 21.0938 125.625V108.281C21.0938 104.297 24.1406 101.25 28.125 101.25H53.4375C57.4219 101.25 60.4687 104.297 60.4687 108.281V125.625C60.4687 129.609 57.4219 132.656 53.4375 132.656ZM28.125 105.938C26.7187 105.938 25.7812 106.875 25.7812 108.281V125.625C25.7812 127.031 26.7187 127.969 28.125 127.969H53.4375C54.8437 127.969 55.7812 127.031 55.7812 125.625V108.281C55.7812 106.875 54.8437 105.938 53.4375 105.938H28.125Z" fill="black"/>
<path d="M79.4531 137.812C78.0469 137.812 77.1094 136.875 77.1094 135.469V132.422C77.1094 131.016 78.0469 130.078 79.4531 130.078C80.8594 130.078 81.7969 131.016 81.7969 132.422V135.469C81.7969 136.875 80.8594 137.812 79.4531 137.812Z" fill="black"/>
</g>
<defs>
<clipPath id="clip0_2_3">
<rect width="150" height="150" fill="white"/>
</clipPath>
</defs>
</svg>
